<?xml version="1.0" encoding="utf-8"?>
<!-- Generator: Adobe Illustrator 19.2.0, SVG Export Plug-In . SVG Version: 6.00 Build 0)  -->
<svg version="1.1" id="Layer_1" xmlns="http://www.w3.org/2000/svg" xmlns:xlink="http://www.w3.org/1999/xlink" x="0px" y="0px"
	 viewBox="0 0 64 64" style="enable-background:new 0 0 64 64;" xml:space="preserve">
<style type="text/css">
	.st0{fill:none;stroke:#ffffff;stroke-width:2;stroke-miterlimit:10;}
</style>
<path class="st0" d="M53.8,10.1c12.1,12.1,12.1,31.7,0,43.8s-31.7,12.1-43.8,0s-12.1-31.7,0-43.8S41.8-2,53.8,10.1z"/>
<path class="st0" d="M53.7,54.6"/>
<g>
	<path fill="#ffffff" d="M30.6,39.4H19.4v-1.7l4.5-4.5c1.4-1.4,2.3-2.4,2.7-3s0.8-1.2,1-1.7s0.3-1.2,0.3-1.8c0-0.9-0.3-1.6-0.8-2.2
		s-1.3-0.8-2.3-0.8c-0.7,0-1.4,0.1-2,0.4s-1.3,0.7-2.1,1.3l-1-1.3c1.6-1.3,3.3-2,5.2-2c1.6,0,2.9,0.4,3.8,1.2s1.4,1.9,1.4,3.3
		c0,1.1-0.3,2.2-0.9,3.2s-1.8,2.4-3.4,4l-3.8,3.7v0.1h8.8v1.8H30.6z"/>
	<path fill="#ffffff" d="M44.5,30.8c0,3-0.5,5.2-1.4,6.6s-2.3,2.2-4.3,2.2c-1.8,0-3.2-0.7-4.2-2.2s-1.4-3.7-1.4-6.6c0-3,0.5-5.2,1.4-6.6
		s2.3-2.2,4.2-2.2s3.3,0.8,4.2,2.3S44.5,27.9,44.5,30.8z M35.2,30.8c0,2.5,0.3,4.3,0.9,5.4s1.5,1.7,2.8,1.7s2.2-0.6,2.8-1.7
		s0.9-3,0.9-5.4s-0.3-4.3-0.9-5.4s-1.5-1.7-2.8-1.7s-2.2,0.6-2.8,1.7S35.2,28.3,35.2,30.8z"/>
</g>
</svg>
