<?xml version="1.0" encoding="utf-8"?>
<!-- Generator: Adobe Illustrator 19.2.0, SVG Export Plug-In . SVG Version: 6.00 Build 0)  -->
<svg version="1.1" id="Layer_1" xmlns="http://www.w3.org/2000/svg" xmlns:xlink="http://www.w3.org/1999/xlink" x="0px" y="0px"
	 viewBox="0 0 64 64" style="enable-background:new 0 0 64 64;" xml:space="preserve">
<style type="text/css">
	.st0{fill:none;stroke:#ffffff;stroke-width:2;stroke-miterlimit:10;}
</style>
<path class="st0" d="M53.8,10.1c12.1,12.1,12.1,31.7,0,43.8s-31.7,12.1-43.8,0s-12.1-31.7,0-43.8S41.8-2,53.8,10.1z"/>
<path class="st0" d="M53.7,54.3"/>
<g>
	<path fill="#ffffff" d="M12.3,39.4h-1.9V27.2c0-1,0-2,0.1-2.9c-0.2,0.2-0.3,0.3-0.6,0.5s-1.1,0.9-2.8,2.3l-1-1.3l4.5-3.5h1.6V39.4z"/>
	<path fill="#ffffff" d="M25.8,30.8c0,3-0.5,5.2-1.4,6.6s-2.4,2.2-4.3,2.2c-1.8,0-3.2-0.7-4.2-2.2s-1.4-3.7-1.4-6.6c0-3,0.5-5.2,1.4-6.6
		s2.3-2.2,4.3-2.2c1.9,0,3.3,0.8,4.2,2.3S25.8,27.9,25.8,30.8z M16.5,30.8c0,2.5,0.3,4.3,0.9,5.4s1.5,1.7,2.8,1.7
		c1.3,0,2.2-0.6,2.8-1.7s0.9-3,0.9-5.4s-0.3-4.3-0.9-5.4s-1.5-1.7-2.8-1.7c-1.3,0-2.2,0.6-2.8,1.7S16.5,28.3,16.5,30.8z"/>
	<path fill="#ffffff" d="M39.5,30.8c0,3-0.5,5.2-1.4,6.6s-2.4,2.2-4.3,2.2c-1.8,0-3.2-0.7-4.2-2.2s-1.4-3.7-1.4-6.6c0-3,0.5-5.2,1.4-6.6
		S32,22,33.9,22c1.9,0,3.3,0.8,4.2,2.3S39.5,27.9,39.5,30.8z M30.2,30.8c0,2.5,0.3,4.3,0.9,5.4s1.5,1.7,2.8,1.7
		c1.3,0,2.2-0.6,2.8-1.7s0.9-3,0.9-5.4s-0.3-4.3-0.9-5.4s-1.5-1.7-2.8-1.7c-1.3,0-2.2,0.6-2.8,1.7S30.2,28.3,30.2,30.8z"/>
	<path fill="#ffffff" d="M48.5,27.3c0,1.8-0.3,3.1-0.9,4c-0.6,0.9-1.5,1.4-2.6,1.4c-1.1,0-1.9-0.5-2.5-1.4c-0.6-0.9-0.9-2.3-0.9-4
		c0-1.8,0.3-3.1,0.9-4s1.4-1.3,2.6-1.3c1.1,0,2,0.5,2.6,1.4S48.5,25.6,48.5,27.3z M43.1,27.3c0,1.3,0.1,2.3,0.4,3s0.8,1,1.4,1
		c1.3,0,1.9-1.3,1.9-4c0-2.6-0.6-4-1.9-4c-0.6,0-1.1,0.3-1.4,1S43.1,26,43.1,27.3z M55.8,22.2l-9.5,17.1h-1.7L54,22.2H55.8z
		 M58.8,34.2c0,1.8-0.3,3.1-0.9,4s-1.5,1.4-2.6,1.4c-1.1,0-2-0.5-2.6-1.4s-0.9-2.3-0.9-4c0-1.8,0.3-3.1,0.9-4s1.4-1.3,2.6-1.3
		c1.1,0,2,0.5,2.6,1.4S58.8,32.5,58.8,34.2z M53.4,34.2c0,1.3,0.1,2.3,0.4,3s0.8,1,1.4,1s1.1-0.3,1.5-1s0.5-1.7,0.5-3
		c0-1.3-0.2-2.3-0.5-3s-0.8-1-1.5-1s-1.1,0.3-1.4,1S53.4,32.9,53.4,34.2z"/>
</g>
</svg>
