<?xml version="1.0" encoding="utf-8"?>
<!-- Generator: Adobe Illustrator 19.2.0, SVG Export Plug-In . SVG Version: 6.00 Build 0)  -->
<svg version="1.1" xmlns="http://www.w3.org/2000/svg" xmlns:xlink="http://www.w3.org/1999/xlink" x="0px" y="0px"
	 viewBox="0 0 152.2 84" style="enable-background:new 0 0 152.2 84;" xml:space="preserve">
<style type="text/css">
	.st0{fill:#FFFFFF;}
</style>
<g id="Группа_3_1_">
	<g id="Фигура_1">
		<g>
			<path class="st0" d="M117.9,60.5c-10.7,9.7-29.2,16.1-50.3,16.1c-33.1,0-59.9-15.7-59.9-35s26.8-35,59.9-35
				c25.1,0,46.6,9,55.5,21.8h14.7c0,0,1.1,1.6,2.2,4.1c-7.3-17.6-35.1-30.7-68.2-30.7c-38.7,0-70.1,17.9-70.1,40s31.4,40,70.1,40
				c26.8,0,50-8.6,61.8-21.1H117.9z"/>
		</g>
	</g>
	<g id="Фигура_1_копия_2">
		<g>
			<path class="st0" d="M85.5,60.5c-6.9,3.7-16,6-25.8,6c-21.9,0-39.7-11.2-39.7-25s17.8-25,39.7-25c14.2,0,26.7,4.7,33.7,11.8H108
				c-8-9.9-24.9-16.8-44.4-16.8c-27.3,0-49.4,13.4-49.4,30s22.1,30,49.4,30c15.5,0,29.2-4.3,38.3-11H85.5z"/>
		</g>
	</g>
	<g id="Фигура_1_копия">
		<g>
			<path class="st0" d="M68.1,49.5c-3.5,4-9.6,6.6-16.5,6.6c-10.9,0-19.7-6.6-19.7-14.6s8.8-14.6,19.7-14.6c7,0,13.1,2.7,16.6,6.8
				l9.1-5.4h0c-5.4-4-13.1-6.5-21.8-6.5c-16.2,0-29.4,8.9-29.4,19.8s13.2,19.8,29.4,19.8c8,0,15.2-2.1,20.5-5.6L68.1,49.5z"/>
		</g>
	</g>
</g>
<g id="Группа_4_1_">
	<g id="_xAE_">
		<g>
			<path class="st0" d="M148.8,30.5c0,0.7-0.2,1.3-0.5,1.9c-0.3,0.6-0.8,1-1.4,1.4c-0.6,0.3-1.2,0.5-1.9,0.5c-0.7,0-1.3-0.2-1.9-0.5
				c-0.6-0.3-1-0.8-1.4-1.4c-0.3-0.6-0.5-1.2-0.5-1.9c0-0.7,0.2-1.3,0.5-1.9c0.3-0.6,0.8-1,1.4-1.4c0.6-0.3,1.2-0.5,1.9-0.5
				s1.3,0.2,1.9,0.5c0.6,0.3,1,0.8,1.4,1.4C148.6,29.2,148.8,29.8,148.8,30.5z M148,30.5c0-0.8-0.3-1.5-0.9-2.1
				c-0.6-0.6-1.3-0.9-2.1-0.9c-0.8,0-1.5,0.3-2.1,0.9c-0.6,0.6-0.9,1.3-0.9,2.1c0,0.5,0.1,1,0.4,1.5c0.3,0.5,0.6,0.8,1.1,1.1
				c0.5,0.3,1,0.4,1.5,0.4c0.5,0,1-0.1,1.5-0.4c0.5-0.3,0.8-0.6,1.1-1.1C147.9,31.5,148,31,148,30.5z M143.4,28.4h1.8
				c0.4,0,0.7,0,0.8,0.1c0.2,0.1,0.3,0.2,0.4,0.4c0.1,0.2,0.2,0.4,0.2,0.7c0,0.2,0,0.4-0.1,0.5c-0.1,0.1-0.2,0.3-0.4,0.4
				c0.2,0.1,0.3,0.2,0.3,0.3c0.1,0.1,0.1,0.3,0.1,0.6c0,0.5,0,0.8,0.1,0.9s0.1,0.2,0.2,0.2h-1c0-0.1-0.1-0.2-0.1-0.3
				c0-0.1,0-0.2,0-0.4c0-0.4,0-0.6-0.1-0.7s-0.1-0.1-0.2-0.2c-0.1,0-0.2-0.1-0.4-0.1h-0.7v1.6h-0.9V28.4z M144.3,29.2v1h0.8
				c0.3,0,0.5,0,0.6-0.1s0.1-0.2,0.1-0.4s0-0.3-0.1-0.4c-0.1-0.1-0.3-0.1-0.6-0.1H144.3z"/>
		</g>
	</g>
	<g id="акси">
		<g>
			<path class="st0" d="M82.5,32.2h4.1v16.5h-4.1V47c-0.8,0.8-1.6,1.3-2.4,1.7c-0.8,0.3-1.7,0.5-2.6,0.5c-2.1,0-4-0.8-5.5-2.5
				c-1.6-1.7-2.3-3.7-2.3-6.2c0-2.6,0.8-4.6,2.3-6.3c1.5-1.6,3.3-2.4,5.5-2.4c1,0,1.9,0.2,2.8,0.6c0.9,0.4,1.7,0.9,2.4,1.7V32.2z
				 M78.1,35.6c-1.3,0-2.3,0.5-3.2,1.4c-0.8,0.9-1.3,2.1-1.3,3.5c0,1.4,0.4,2.6,1.3,3.5c0.9,0.9,1.9,1.4,3.2,1.4
				c1.3,0,2.4-0.5,3.2-1.4s1.3-2.1,1.3-3.6c0-1.4-0.4-2.6-1.3-3.5S79.5,35.6,78.1,35.6z"/>
			<path class="st0" d="M89.6,32.2h4.1v6.2l5.7-6.2h5.1l-7.4,8l7.4,8.5h-5.5l-4.9-5.8l-0.4,0.5v5.3h-4.1V32.2z"/>
			<path class="st0" d="M120.6,35.6l-3.5,1.9c-0.6-0.7-1.3-1.1-1.9-1.4c-0.6-0.3-1.4-0.4-2.2-0.4c-1.5,0-2.8,0.5-3.8,1.4
				c-1,0.9-1.4,2.1-1.4,3.6c0,1.4,0.5,2.6,1.4,3.4c0.9,0.9,2.1,1.3,3.6,1.3c1.9,0,3.3-0.6,4.3-1.9l3.3,2.2c-1.8,2.3-4.3,3.5-7.5,3.5
				c-2.9,0-5.2-0.9-6.8-2.6c-1.6-1.7-2.5-3.7-2.5-6c0-1.6,0.4-3.1,1.2-4.4c0.8-1.3,1.9-2.4,3.3-3.2c1.4-0.8,3-1.2,4.8-1.2
				c1.6,0,3.1,0.3,4.4,1S119.8,34.4,120.6,35.6z"/>
			<path class="st0" d="M124.7,48.7h-2.2V32.2h4v9.7l8.5-9.7h2v16.5h-4v-9.5L124.7,48.7z"/>
		</g>
	</g>
	<g id="саквояжи_сибири">
		<g>
			<path class="st0" d="M83.2,53.1l-0.4,0.2c-0.3-0.4-0.8-0.7-1.3-0.7c-0.5,0-0.8,0.1-1.1,0.4s-0.5,0.6-0.5,1.1
				c0,0.3,0.1,0.5,0.2,0.8c0.1,0.2,0.3,0.4,0.6,0.6c0.2,0.1,0.5,0.2,0.8,0.2c0.5,0,1-0.2,1.3-0.7l0.4,0.3c-0.2,0.3-0.4,0.5-0.7,0.6
				c-0.3,0.1-0.6,0.2-1,0.2c-0.6,0-1.1-0.2-1.5-0.6s-0.6-0.8-0.6-1.4c0-0.4,0.1-0.7,0.3-1c0.2-0.3,0.4-0.6,0.8-0.7
				c0.3-0.2,0.7-0.3,1.1-0.3c0.2,0,0.5,0,0.7,0.1c0.2,0.1,0.4,0.2,0.6,0.3C82.9,52.8,83.1,53,83.2,53.1z"/>
			<path class="st0" d="M87.5,52.4v3.7h-0.5v-0.6c-0.2,0.2-0.4,0.4-0.7,0.6c-0.3,0.1-0.5,0.2-0.8,0.2c-0.5,0-1-0.2-1.4-0.6
				s-0.6-0.9-0.6-1.4c0-0.5,0.2-1,0.6-1.4c0.4-0.4,0.8-0.6,1.4-0.6c0.3,0,0.6,0.1,0.8,0.2c0.2,0.1,0.5,0.3,0.7,0.6v-0.7H87.5z
				 M85.6,52.7c-0.3,0-0.5,0.1-0.7,0.2s-0.4,0.3-0.5,0.6s-0.2,0.5-0.2,0.8c0,0.3,0.1,0.5,0.2,0.8s0.3,0.4,0.5,0.6s0.5,0.2,0.7,0.2
				c0.3,0,0.5-0.1,0.7-0.2c0.2-0.1,0.4-0.3,0.5-0.5c0.1-0.2,0.2-0.5,0.2-0.8c0-0.4-0.1-0.8-0.4-1.1C86.4,52.9,86,52.7,85.6,52.7z"/>
			<path class="st0" d="M88.8,52.4h0.5v1.6l1.7-1.6h0.7l-1.9,1.7l2,2h-0.7l-1.7-1.7l-0.2,0.1v1.6h-0.5V52.4z"/>
			<path class="st0" d="M93.4,56.1h-1.1v-3.7h1.1c0.4,0,0.7,0.1,0.9,0.3c0.2,0.2,0.3,0.4,0.3,0.7c0,0.4-0.2,0.6-0.5,0.8
				c0.5,0.2,0.7,0.5,0.7,1C94.8,55.8,94.3,56.1,93.4,56.1z M92.8,52.8v1.2h0.3c0.3,0,0.5,0,0.6,0c0.1,0,0.2-0.1,0.2-0.2
				c0.1-0.1,0.1-0.2,0.1-0.4c0-0.2,0-0.3-0.1-0.4c-0.1-0.1-0.2-0.2-0.3-0.2c-0.1,0-0.3,0-0.5,0H92.8z M92.8,54.4v1.3h0.5
				c0.2,0,0.4,0,0.5,0s0.2-0.1,0.3-0.2c0.1-0.1,0.1-0.2,0.1-0.4c0-0.2-0.1-0.4-0.2-0.5s-0.3-0.2-0.5-0.2H92.8z"/>
			<path class="st0" d="M97.4,52.3c0.6,0,1.1,0.2,1.4,0.6c0.3,0.4,0.5,0.8,0.5,1.4c0,0.5-0.2,1-0.5,1.4c-0.4,0.4-0.8,0.6-1.4,0.6
				c-0.6,0-1-0.2-1.4-0.6c-0.4-0.4-0.5-0.8-0.5-1.4c0-0.5,0.2-1,0.5-1.3C96.3,52.5,96.8,52.3,97.4,52.3z M97.4,52.7
				c-0.4,0-0.7,0.1-1,0.4s-0.4,0.7-0.4,1.1c0,0.3,0.1,0.5,0.2,0.8c0.1,0.2,0.3,0.4,0.5,0.5c0.2,0.1,0.5,0.2,0.7,0.2s0.5-0.1,0.7-0.2
				c0.2-0.1,0.4-0.3,0.5-0.5c0.1-0.2,0.2-0.5,0.2-0.8c0-0.4-0.1-0.8-0.4-1.1C98.1,52.9,97.8,52.7,97.4,52.7z"/>
			<path class="st0" d="M101.8,54.4h-0.3l-1.1,1.7h-0.5l1.1-1.7c-0.3,0-0.5-0.1-0.7-0.3c-0.2-0.2-0.3-0.4-0.3-0.7
				c0-0.3,0.1-0.6,0.3-0.8c0.2-0.2,0.5-0.3,0.8-0.3h1.1v3.7h-0.5V54.4z M101.8,52.8h-0.3c-0.3,0-0.5,0-0.6,0.1s-0.2,0.1-0.3,0.2
				c-0.1,0.1-0.1,0.2-0.1,0.4c0,0.2,0,0.3,0.1,0.4c0.1,0.1,0.2,0.2,0.3,0.2c0.1,0,0.3,0,0.6,0h0.3V52.8z"/>
			<path class="st0" d="M105.3,52.4h0.5V54l1.8-1.7h0.6l-1.8,1.7l1.9,2.1h-0.6l-1.6-1.8l-0.3,0.2v1.6h-0.5v-1.6l-0.3-0.2l-1.6,1.8
				h-0.6l1.9-2.1l-1.7-1.7h0.6l1.8,1.7V52.4z"/>
			<path class="st0" d="M109.4,52.4v2.8l2.7-2.8h0v3.7h-0.5v-2.7l-2.7,2.7h-0.1v-3.7H109.4z"/>
			<path class="st0" d="M118.8,53.1l-0.4,0.2c-0.3-0.4-0.8-0.7-1.3-0.7c-0.5,0-0.8,0.1-1.1,0.4s-0.5,0.6-0.5,1.1
				c0,0.3,0.1,0.5,0.2,0.8c0.1,0.2,0.3,0.4,0.6,0.6c0.2,0.1,0.5,0.2,0.8,0.2c0.5,0,1-0.2,1.3-0.7l0.4,0.3c-0.2,0.3-0.4,0.5-0.7,0.6
				c-0.3,0.1-0.6,0.2-1,0.2c-0.6,0-1.1-0.2-1.5-0.6s-0.6-0.8-0.6-1.4c0-0.4,0.1-0.7,0.3-1c0.2-0.3,0.4-0.6,0.8-0.7
				c0.3-0.2,0.7-0.3,1.1-0.3c0.2,0,0.5,0,0.7,0.1c0.2,0.1,0.4,0.2,0.6,0.3C118.6,52.8,118.7,53,118.8,53.1z"/>
			<path class="st0" d="M120.2,52.4v2.8l2.7-2.8h0v3.7h-0.5v-2.7l-2.7,2.7h-0.1v-3.7H120.2z"/>
			<path class="st0" d="M127.7,50.8v0.5c-0.2,0-0.6,0.1-1.2,0.1c-0.4,0-0.7,0-0.9,0.1c-0.2,0-0.4,0.1-0.6,0.2
				c-0.2,0.1-0.3,0.3-0.4,0.5c-0.1,0.2-0.2,0.5-0.2,0.8l0,0.5c0.1-0.4,0.3-0.7,0.6-0.9s0.6-0.3,1-0.3c0.6,0,1,0.2,1.4,0.6
				s0.6,0.9,0.6,1.4c0,0.5-0.2,1-0.6,1.4c-0.4,0.4-0.8,0.6-1.4,0.6c-0.6,0-1.1-0.2-1.5-0.6c-0.4-0.4-0.6-1.1-0.6-2
				c0-0.6,0.1-1.1,0.2-1.5c0.1-0.3,0.3-0.6,0.5-0.7c0.2-0.1,0.4-0.3,0.7-0.3c0.3-0.1,0.9-0.1,1.7-0.2
				C127.3,50.9,127.5,50.9,127.7,50.8z M127.4,54.3c0-0.4-0.1-0.8-0.4-1.1c-0.3-0.3-0.6-0.4-1-0.4c-0.4,0-0.7,0.1-1,0.4
				s-0.4,0.7-0.4,1.1c0,0.4,0.1,0.8,0.4,1.1s0.6,0.4,1,0.4c0.4,0,0.8-0.1,1-0.4S127.4,54.7,127.4,54.3z"/>
			<path class="st0" d="M129.3,52.4v2.8l2.7-2.8h0v3.7h-0.5v-2.7l-2.7,2.7h-0.1v-3.7H129.3z"/>
			<path class="st0" d="M133.1,52.4h0.5V53c0.2-0.3,0.4-0.5,0.7-0.6c0.2-0.1,0.5-0.2,0.8-0.2c0.5,0,1,0.2,1.4,0.6
				c0.4,0.4,0.6,0.8,0.6,1.4c0,0.5-0.2,1-0.6,1.4c-0.4,0.4-0.8,0.6-1.4,0.6c-0.3,0-0.6-0.1-0.8-0.2c-0.3-0.1-0.5-0.3-0.7-0.6v2h-0.5
				V52.4z M135.1,52.7c-0.4,0-0.8,0.1-1.1,0.4c-0.3,0.3-0.4,0.7-0.4,1.1c0,0.3,0.1,0.5,0.2,0.8s0.3,0.4,0.5,0.5s0.5,0.2,0.7,0.2
				c0.3,0,0.5-0.1,0.7-0.2s0.4-0.3,0.5-0.6s0.2-0.5,0.2-0.8c0-0.3-0.1-0.5-0.2-0.8s-0.3-0.4-0.5-0.6S135.3,52.7,135.1,52.7z"/>
			<path class="st0" d="M138.4,52.4v2.8l2.7-2.8h0v3.7h-0.5v-2.7l-2.7,2.7h-0.1v-3.7H138.4z"/>
		</g>
	</g>
</g>
</svg>
